Coordinates
version=1
nRows=7
nColumns=63
inDegrees=yes

Units are S.I. units (second, meters, Newtons, ...)
If the header above contains a line with 'inDegrees', this indicates whether rotational values are in degrees (yes) or radians (no).

endheader
time	pelvis_tilt	pelvis_list	pelvis_rotation	pelvis_tx	pelvis_ty	pelvis_tz	hip_flexion_r	hip_adduction_r	hip_rotation_r	knee_angle_r	knee_angle_r_beta	ankle_angle_r	subtalar_angle_r	mtp_angle_r	hip_flexion_l	hip_adduction_l	hip_rotation_l	knee_angle_l	knee_angle_l_beta	ankle_angle_l	subtalar_angle_l	mtp_angle_l	L5_S1_Flex_Ext	L5_S1_Lat_Bending	L5_S1_axial_rotation	L4_L5_Flex_Ext	L4_L5_Lat_Bending	L4_L5_axial_rotation	L3_L4_Flex_Ext	L3_L4_Lat_Bending	L3_L4_axial_rotation	L2_L3_Flex_Ext	L2_L3_Lat_Bending	L2_L3_axial_rotation	L1_L2_Flex_Ext	L1_L2_Lat_Bending	L1_L2_axial_rotation	L1_T12_Flex_Ext	L1_T12_Lat_Bending	L1_T12_axial_rotation	Abs_r3	Abs_r2	Abs_r1	Abs_t1	Abs_t2	neck_flexion	neck_bending	neck_rotation	arm_flex_r	arm_add_r	arm_rot_r	elbow_flex_r	pro_sup_r	wrist_flex_r	wrist_dev_r	arm_flex_l	arm_add_l	arm_rot_l	elbow_flex_l	pro_sup_l	wrist_flex_l	wrist_dev_l
      1.28333333	     -7.22770104	    -15.15848653	     71.01296230	      0.21597011	      0.97817524	      0.56007388	     22.37692676	     -2.19853664	      4.61551634	     21.64589741	      0.37779218	     36.92382880	     18.32424846	      0.00000000	     11.89717357	      4.39031456	    -14.06013489	      3.77814793	      0.06594112	     29.22282204	    -13.28733742	      0.00000000	     -1.14462137	     -1.18849350	     -0.08824612	     -2.12567634	     -1.58069635	     -0.09376151	     -1.88049844	     -2.88970309	     -0.09376151	     -1.30818776	     -2.88970309	     -0.07721536	     -1.06289540	     -2.42357594	     -0.07169998	     -0.65403665	     -1.84097643	     -0.06618459	     -8.17591595	    -13.44447612	     -0.49079847	      0.00000000	      0.00000000	      2.28039806	      1.71666431	      4.10566107	     -4.44235890	     -9.81740642	      1.04774853	     56.42899580	     88.82815570	     -8.23509588	      1.85336429	     -8.33814925	    -20.01770729	      6.15560564	     47.88393680	     88.69103238	    -10.46437956	      9.11962907
      1.30000000	     -7.21932992	    -15.24553547	     71.02416455	      0.21597592	      0.97813192	      0.56028448	     22.44475962	     -2.18485463	      4.59665771	     21.66479928	      0.37812208	     36.80485116	     18.31145884	      0.00000000	     11.92606379	      4.36125238	    -14.01167723	      3.73903028	      0.06525839	     29.09095946	    -13.31612373	      0.00000000	     -1.13915770	     -1.18333678	     -0.08057859	     -2.11552977	     -1.57383791	     -0.08561475	     -1.87152219	     -2.87716504	     -0.08561475	     -1.30194334	     -2.87716504	     -0.07050626	     -1.05782184	     -2.41306035	     -0.06547010	     -0.65091471	     -1.83298867	     -0.06043394	     -8.13688955	    -13.38614228	     -0.44815393	      0.00000000	      0.00000000	      2.37708896	      1.72753024	      4.11237712	     -4.37662971	     -9.83004222	      1.11959755	     56.66960944	     88.86690116	     -8.20039656	      1.77967140	     -8.09835039	    -20.02255277	      6.06860261	     48.13544039	     88.67319623	    -10.45556613	      9.18589379
      1.31666667	     -7.12798224	    -15.47026519	     71.00604866	      0.21571600	      0.97769946	      0.56076716	     22.68930731	     -2.05089005	      4.50203815	     21.78763906	      0.38026604	     36.68600509	     18.27564321	      0.00000000	     12.05079278	      4.23866916	    -13.77325582	      3.58070985	      0.06249518	     28.95163202	    -13.58260881	      0.00000000	     -1.12832880	     -1.16203773	     -0.06694578	     -2.09541942	     -1.54551019	     -0.07112989	     -1.85373139	     -2.82537855	     -0.07112989	     -1.28956699	     -2.82537855	     -0.05857755	     -1.04776613	     -2.36962735	     -0.05439344	     -0.64472708	     -1.79999645	     -0.05020933	     -8.05953981	    -13.14520325	     -0.37233232	      0.00000000	      0.00000000	      3.12169491	      1.73340923	      4.09287108	     -4.37262642	    -10.04642013	      1.30041507	     57.18139420	     88.92679588	     -8.16688651	      1.49254543	     -7.98404189	    -19.94103998	      5.74219449	     48.68955095	     88.65686490	    -10.46500316	      9.77344871
      1.33333333	     -7.09859999	    -15.62325600	     71.20947147	      0.21521879	      0.97747472	      0.56095697	     22.82142989	     -2.10155854	      4.22399977	     21.89365158	      0.38211631	     36.58368330	     18.26908414	      0.00000000	     12.18152668	      4.25534413	    -12.37219450	      3.55458552	      0.06203922	     28.45508346	    -15.22091138	      0.00000000	     -1.11732784	     -1.15154712	     -0.13074452	     -2.07498954	     -1.53155767	     -0.13891605	     -1.83565791	     -2.79987167	     -0.13891605	     -1.27699399	     -2.79987167	     -0.11440146	     -1.03755064	     -2.34823489	     -0.10622992	     -0.63844113	     -1.78374649	     -0.09805839	     -7.98096105	    -13.02653134	     -0.72716181	      0.00000000	      0.00000000	      3.41380119	      1.63251376	      4.17657601	     -4.02880025	    -10.19150715	      1.93465288	     57.18682367	     88.94061127	     -8.71568402	      0.57549333	     -8.18385376	    -19.69668545	      4.50210872	     49.53838472	     88.75728184	    -10.14317320	     11.26760085
      1.35000000	     -7.00600767	    -15.71656856	     71.25737466	      0.21495417	      0.97727837	      0.56080300	     22.80065717	     -2.05744468	      3.99325966	     21.87699117	      0.38182553	     36.44794507	     18.21925887	      0.00000000	     12.26281094	      4.14592271	    -12.24994606	      3.74898809	      0.06543219	     28.50687710	    -15.39499548	      0.00000000	     -1.10510220	     -1.13276509	     -0.13694217	     -2.05228529	     -1.50657757	     -0.14550106	     -1.81557240	     -2.75420503	     -0.14550106	     -1.26302130	     -2.75420503	     -0.11982440	     -1.02619790	     -2.30993457	     -0.11126551	     -0.63145539	     -1.75465312	     -0.10270663	     -7.89363447	    -12.81406523	     -0.76163127	      0.00000000	      0.00000000	      3.86216548	      1.30359015	      4.16980591	     -3.86780560	    -10.29944837	      2.11940188	     57.39035790	     88.97657171	     -8.70969831	     -0.31767564	     -8.21736938	    -19.54496890	      4.07994828	     49.73774672	     88.78724846	    -10.55956518	     10.56722824
      1.36666667	     -6.84646808	    -15.77223787	     71.53553121	      0.21439005	      0.97708040	      0.56005087	     22.58166613	     -2.04785961	      3.61465199	     21.69407485	      0.37863303	     36.38086929	     18.17770276	      0.00000000	     12.32725662	      4.01260399	    -12.26649958	      4.16599942	      0.07271041	     28.71326003	    -15.28694188	      0.00000000	     -1.08615115	     -1.10506282	     -0.17894689	     -2.01709130	     -1.46973355	     -0.19013107	     -1.78443772	     -2.68684974	     -0.19013107	     -1.24136215	     -2.68684974	     -0.15657853	     -1.00859996	     -2.25344410	     -0.14539434	     -0.62062677	     -1.71174231	     -0.13421016	     -7.75826905	    -12.50069161	     -0.99524890	      0.00000000	      0.00000000	      4.32821607	      0.96395291	      4.25167987	     -3.67670312	    -10.49271619	      2.48285822	     57.39954142	     88.97956374	     -8.87851933	     -1.67209198	     -8.33105521	    -19.37026340	      3.75990157	     49.78299676	     88.80192474	    -11.17542691	      9.41440639
      1.38333333	     -6.82786335	    -15.74855020	     71.58551182	      0.21420308	      0.97686524	      0.55857456	     22.39763801	     -2.11370762	      3.49741060	     21.69016569	      0.37856481	     36.39750701	     18.09486164	      0.00000000	     12.13593601	      4.04756433	    -12.39047345	      4.26150861	      0.07437736	     28.64693913	    -15.33280956	      0.00000000	     -1.03918661	     -1.09609401	     -0.17165876	     -1.92987346	     -1.45780503	     -0.18238743	     -1.70727968	     -2.66504298	     -0.18238743	     -1.18768638	     -2.66504298	     -0.15020141	     -0.96498869	     -2.23515491	     -0.13947274	     -0.59379123	     -1.69784962	     -0.12874407	     -7.42280604	    -12.39923466	     -0.95471451	      0.00000000	      0.00000000	      4.52142606	      0.94414248	      4.26428261	     -3.62607191	    -10.51129650	      2.49955607	     57.48498688	     88.98604205	     -8.87693899	     -1.76833303	     -8.41679832	    -19.38812675	      3.75286501	     49.74871589	     88.80961609	    -11.19815071	      9.36889907
